<svg width="1024" height="1024" viewBox="0 0 1024 1024" fill="none" xmlns="http://www.w3.org/2000/svg">
<g clip-path="url(#clip0_208_2)">
<rect width="1024" height="1024" fill="white"/>
<path d="M512 498C563.875 498 605.75 456.125 605.75 404.25C605.75 369.25 586.687 338.625 558.875 322.688L255.437 147.062L428.25 446.438C443.875 477.063 475.437 498 512 498ZM512 91.75C455.437 91.75 402.625 107.375 356.687 133L422.312 170.813C449.5 160.188 480.75 154.25 512 154.25C650.125 154.25 762 266.125 762 404.25C762 473.313 734.187 535.812 688.875 580.812H688.562C685.665 583.704 683.367 587.138 681.799 590.918C680.231 594.698 679.423 598.751 679.423 602.844C679.423 606.936 680.231 610.989 681.799 614.769C683.367 618.55 685.665 621.984 688.562 624.875C700.75 637.062 720.75 637.062 732.937 625.187C761.999 596.207 785.049 561.769 800.762 523.854C816.475 485.939 824.542 445.292 824.5 404.25C824.5 232.375 683.875 91.75 512 91.75ZM199.5 404.25C199.5 490.5 234.5 568.625 291.062 625.187C303.25 637.062 322.937 637.062 335.125 624.875C338.022 621.984 340.32 618.55 341.888 614.769C343.457 610.989 344.264 606.936 344.264 602.844C344.264 598.751 343.457 594.698 341.888 590.918C340.32 587.138 338.022 583.704 335.125 580.812C311.884 557.667 293.457 530.148 280.906 499.844C268.355 469.54 261.93 437.05 262 404.25C262 373 267.937 341.75 278.875 313.625L241.062 248C215.125 294.875 199.5 347.375 199.5 404.25Z" fill="black"/>
<path d="M225.83 752.927C225.83 757.094 224.854 760.685 222.904 763.7C221.042 766.626 217.938 769.33 213.594 771.813C210.668 773.586 207.254 774.916 203.353 775.803C199.451 776.69 195.506 777.133 191.516 777.133C187.437 777.133 182.383 775.803 176.354 773.143C172.009 771.015 168.551 768.488 165.98 765.562C163.497 762.636 162.256 759.444 162.256 755.986C162.256 753.592 162.788 751.863 163.852 750.799C164.916 749.646 166.645 749.07 169.039 749.07C170.28 749.07 171.566 749.602 172.896 750.666C174.226 751.641 175.024 752.617 175.29 753.592C176.531 757.227 178.703 760.02 181.807 761.971C184.91 763.833 188.767 764.764 193.378 764.764C198.698 764.764 203.131 763.789 206.678 761.838C210.313 759.887 212.131 757.272 212.131 753.991C212.131 750.799 210.18 747.962 206.279 745.479C202.377 742.996 198.387 741.267 194.309 740.292C188.457 738.696 183.27 736.79 178.748 734.573C174.048 732.268 170.546 729.43 168.241 726.061C165.935 722.692 164.783 719.145 164.783 715.421C164.783 711.963 165.98 708.461 168.374 704.914C170.768 701.279 173.605 698.663 176.886 697.067C178.659 696.18 181.674 695.249 185.93 694.274C190.274 693.21 193.422 692.678 195.373 692.678C197.944 692.678 200.781 692.988 203.885 693.609C206.988 694.23 209.515 695.116 211.466 696.269C215.367 698.486 218.249 700.481 220.111 702.254C221.973 704.027 222.904 706.244 222.904 708.904C222.904 710.5 222.283 711.919 221.042 713.16C219.889 714.401 217.85 715.022 214.924 715.022C214.214 715.022 213.505 714.712 212.796 714.091C212.086 713.47 211.2 712.539 210.136 711.298C208.717 709.436 207.343 708.195 206.013 707.574C204.683 707.131 202.732 706.643 200.161 706.111C197.678 705.579 195.461 705.313 193.511 705.313C191.383 705.313 189.166 705.756 186.861 706.643C184.555 707.53 182.605 708.815 181.009 710.5C179.501 712.096 178.748 713.958 178.748 716.086C178.748 717.859 179.546 719.411 181.142 720.741C182.826 721.982 184.821 723.002 187.127 723.8C189.787 724.864 192.668 725.795 195.772 726.593C199.85 727.834 203.175 728.987 205.747 730.051C208.407 731.026 210.978 732.268 213.461 733.775C217.805 736.346 220.953 739.006 222.904 741.755C224.854 744.415 225.83 748.139 225.83 752.927ZM241.327 730.716C240.529 730.716 239.776 730.805 239.066 730.982C238.357 731.071 237.648 731.115 236.938 731.115C235.963 731.115 235.032 730.672 234.145 729.785C233.347 728.898 232.948 728.1 232.948 727.391C232.948 725.086 234.101 723.312 236.406 722.071C238.712 720.741 241.061 720.076 243.455 720.076C245.495 720.076 247.578 720.785 249.706 722.204C251.923 723.534 253.563 725.263 254.627 727.391C256.933 724.642 259.77 722.647 263.139 721.406C266.509 720.165 270.011 719.544 273.646 719.544C277.725 719.544 281.493 720.83 284.951 723.401C288.498 725.972 291.291 729.253 293.33 733.243C295.37 737.144 296.389 741.046 296.389 744.947C296.389 748.76 295.99 752.173 295.192 755.188C294.394 758.114 292.976 761.084 290.936 764.099C288.631 767.291 285.528 769.907 281.626 771.946C277.814 773.985 273.247 775.005 267.927 775.005C266.509 775.005 264.78 774.65 262.74 773.941C260.701 773.143 259.016 772.301 257.686 771.414C257.066 777.443 256.755 782.675 256.755 787.108C256.755 789.768 256.888 792.295 257.154 794.689C257.332 797.526 257.42 799.566 257.42 800.807C257.42 802.758 256.755 804.176 255.425 805.063C254.095 806.038 252.632 806.526 251.036 806.526C247.844 806.526 245.716 805.639 244.652 803.866C243.677 802.181 243.189 799.743 243.189 796.551C243.544 788.926 243.987 781.877 244.519 775.404C245.051 767.424 245.317 755.099 245.317 738.43C245.317 736.834 245.007 735.149 244.386 733.376C243.766 731.603 242.746 730.716 241.327 730.716ZM258.218 758.247C258.662 759.932 259.903 761.35 261.942 762.503C264.07 763.567 265.977 764.099 267.661 764.099C272.715 764.099 276.484 762.725 278.966 759.976C280.828 758.025 282.025 756.119 282.557 754.257C283.178 752.395 283.488 749.425 283.488 745.346C283.488 742.154 282.868 739.494 281.626 737.366C280.385 735.149 278.878 733.553 277.104 732.578C275.331 731.514 273.646 730.982 272.05 730.982C268.415 730.982 265.445 732.09 263.139 734.307C260.923 736.435 259.504 739.361 258.883 743.085C258.44 746.011 258.218 751.065 258.218 758.247ZM307.601 748.804C307.601 745.435 308.221 742.065 309.463 738.696C310.704 735.238 312.344 732.09 314.384 729.253C316.423 726.416 319.659 724.11 324.093 722.337C328.526 720.475 332.472 719.544 335.93 719.544C339.476 719.544 343.067 720.032 346.703 721.007C350.427 721.982 352.998 723.49 354.417 725.529C357.697 730.14 359.338 734.662 359.338 739.095C359.338 741.489 358.806 743.528 357.742 745.213C356.766 746.898 355.348 748.715 353.486 750.666C351.978 752.262 349.584 753.326 346.304 753.858C343.112 754.39 339.92 754.656 336.728 754.656C334.688 754.656 332.206 754.479 329.28 754.124C326.354 753.681 323.516 753.149 320.768 752.528C320.945 754.301 321.388 756.03 322.098 757.715C322.807 759.4 323.649 760.685 324.625 761.572C326.398 763.257 328.216 764.321 330.078 764.764C332.028 765.207 334.511 765.429 337.526 765.429C340.718 765.429 343.688 764.897 346.437 763.833C348.653 763.035 350.471 762.636 351.89 762.636C353.574 762.636 354.86 763.168 355.747 764.232C356.633 765.207 357.077 766.493 357.077 768.089C357.077 770.306 355.791 772.123 353.22 773.542C350.648 774.961 347.678 776.025 344.309 776.734C341.028 777.355 338.368 777.665 336.329 777.665C332.161 777.665 328.127 776.911 324.226 775.404C320.324 773.897 317.088 771.769 314.517 769.02C312.389 766.537 310.704 763.567 309.463 760.109C308.221 756.562 307.601 752.794 307.601 748.804ZM336.595 730.849C334.644 730.849 332.693 731.248 330.743 732.046C328.792 732.755 327.196 733.775 325.955 735.105C324.359 736.79 323.25 738.164 322.63 739.228C322.098 740.203 321.743 741.578 321.566 743.351C323.782 744.06 328.393 744.415 335.398 744.415C339.21 744.415 342.136 743.839 344.176 742.686C346.304 741.533 347.368 740.026 347.368 738.164C347.368 736.302 346.215 734.617 343.91 733.11C341.604 731.603 339.166 730.849 336.595 730.849ZM370.718 746.543C370.718 741.134 371.915 736.657 374.309 733.11C376.703 729.475 380.028 726.061 384.284 722.869C385.525 721.982 387.609 721.229 390.535 720.608C393.461 719.899 396.032 719.544 398.249 719.544C400.909 719.544 403.702 720.12 406.628 721.273C409.642 722.337 412.081 723.578 413.943 724.997C417.223 727.391 419.484 730.184 420.726 733.376C421.967 736.479 422.588 740.203 422.588 744.548C422.588 746.41 421.524 748.228 419.396 750.001C417.356 751.686 415.14 752.528 412.746 752.528L407.692 752.395C405.12 752.395 401.441 752.484 396.653 752.661L393.86 752.794C391.909 752.971 390.446 753.06 389.471 753.06C388.052 753.06 386.101 752.883 383.619 752.528C383.973 756.695 385.525 759.976 388.274 762.37C391.022 764.675 393.993 765.828 397.185 765.828C402.771 765.828 406.672 764.72 408.889 762.503C410.751 761.173 411.992 760.331 412.613 759.976C413.233 759.621 414.209 759.444 415.539 759.444C416.957 759.444 418.199 760.109 419.263 761.439C420.327 762.769 420.859 764.099 420.859 765.429C420.859 766.936 419.928 768.488 418.066 770.084C416.292 771.591 413.854 773.187 410.751 774.872C409.066 775.581 406.761 776.202 403.835 776.734C400.909 777.266 398.47 777.532 396.52 777.532C393.416 777.532 389.958 776.645 386.146 774.872C382.333 773.01 379.496 770.971 377.634 768.754C375.772 766.537 374.131 763.39 372.713 759.311C371.383 755.232 370.718 750.976 370.718 746.543ZM397.185 742.952C403.48 742.952 408.091 742.73 411.017 742.287C410.839 739.716 410.041 737.632 408.623 736.036C407.204 734.351 405.253 732.933 402.771 731.78C401.973 731.425 401.263 731.159 400.643 730.982C400.022 730.805 399.313 730.716 398.515 730.716C394.436 730.716 390.978 731.824 388.141 734.041C385.392 736.258 383.752 739.095 383.22 742.553C387.653 742.819 392.308 742.952 397.185 742.952ZM490.233 776.335C488.371 776.335 486.597 775.803 484.913 774.739C483.317 773.586 481.898 772.389 480.657 771.148C479.415 769.818 478.573 768.931 478.13 768.488C476.268 771.148 473.563 773.32 470.017 775.005C466.47 776.69 463.056 777.532 459.776 777.532C454.722 777.532 450.244 776.468 446.343 774.34C442.441 772.212 439.427 769.33 437.299 765.695C435.171 761.971 434.107 757.848 434.107 753.326C434.107 749.07 434.594 744.991 435.57 741.09C436.634 737.1 438.052 733.775 439.826 731.115C442.22 727.746 445.412 725.086 449.402 723.135C453.48 721.184 457.515 720.209 461.505 720.209C463.899 720.209 466.16 720.652 468.288 721.539C470.416 722.426 472.278 723.534 473.874 724.864C473.874 719.012 473.829 715.332 473.741 713.825V710.899C473.741 702.564 474.273 696.491 475.337 692.678C476.312 688.954 478.706 687.092 482.519 687.092C484.558 687.092 486.065 687.535 487.041 688.422C488.016 689.309 488.504 690.993 488.504 693.476C488.504 694.363 488.282 696.801 487.839 700.791C486.863 710.722 486.376 720.652 486.376 730.583C486.376 738.918 486.509 745.124 486.775 749.203C487.129 753.193 487.794 756.385 488.77 758.779C489.834 761.173 491.474 763.301 493.691 765.163C495.021 766.227 495.952 767.114 496.484 767.823C497.104 768.532 497.415 769.463 497.415 770.616C497.415 772.035 496.705 773.365 495.287 774.606C493.868 775.759 492.183 776.335 490.233 776.335ZM459.377 766.759C464.076 766.759 467.534 765.296 469.751 762.37C472.056 759.355 473.209 755.543 473.209 750.932L473.076 743.484C472.987 742.065 472.943 740.159 472.943 737.765C469.662 733.864 466.115 731.913 462.303 731.913C459.731 731.913 457.293 732.578 454.988 733.908C452.771 735.238 450.953 737.189 449.535 739.76C448.027 742.686 447.274 747.119 447.274 753.06C447.274 757.139 448.471 760.464 450.865 763.035C453.259 765.518 456.096 766.759 459.377 766.759ZM607.906 750.134C607.906 755.099 606 759.843 602.187 764.365C598.463 768.798 593.72 772.301 587.956 774.872C585.474 775.67 582.326 776.335 578.513 776.867C574.701 777.31 570.844 777.576 566.942 777.665C559.317 777.665 552.224 776.601 545.662 774.473C544.51 774.207 543.18 773.453 541.672 772.212C540.165 770.971 539.456 769.33 539.544 767.291V762.769C539.544 757.804 539.411 753.016 539.145 748.405C538.968 742.376 538.879 737.765 538.879 734.573L538.746 719.544C538.746 714.224 538.924 708.86 539.278 703.451C539.367 700.702 540.387 698.397 542.337 696.535C544.377 694.584 546.904 693.387 549.918 692.944C551.071 692.855 553.155 692.811 556.169 692.811L568.937 692.944C575.055 692.944 580.508 693.742 585.296 695.338C590.084 696.934 594.207 699.505 597.665 703.052C598.818 704.382 599.749 706.155 600.458 708.372C601.168 710.5 601.522 712.584 601.522 714.623C601.256 721.805 597.133 727.657 589.153 732.179C595.537 732.977 600.237 734.972 603.251 738.164C606.355 741.356 607.906 745.346 607.906 750.134ZM557.632 728.987C558.519 728.898 559.938 728.854 561.888 728.854H567.873C570.533 728.854 572.395 728.765 573.459 728.588C582.503 726.549 587.025 722.958 587.025 717.815C587.025 716.485 586.804 715.066 586.36 713.559C586.006 712.052 585.518 710.988 584.897 710.367C582.592 708.15 580.42 706.732 578.38 706.111C576.341 705.402 573.326 705.047 569.336 705.047C561.622 705.047 556.081 705.446 552.711 706.244L552.844 729.12L557.632 728.987ZM563.75 766.493C572.972 766.493 580.198 765.34 585.429 763.035C590.749 760.73 593.409 756.208 593.409 749.469C593.409 746.809 591.459 744.637 587.557 742.952C583.656 741.179 579.4 740.292 574.789 740.292C569.115 740.292 565.125 740.425 562.819 740.691C560.869 740.868 559.539 740.957 558.829 740.957C557.499 740.957 556.568 740.913 556.036 740.824C555.593 740.824 555.061 740.824 554.44 740.824C553.908 740.735 553.332 740.735 552.711 740.824L552.844 745.213C552.933 746.277 553.066 749.203 553.243 753.991C553.509 758.69 553.554 762.015 553.376 763.966C555.416 764.853 557.189 765.518 558.696 765.961C560.204 766.316 561.888 766.493 563.75 766.493ZM618.791 732.179C618.081 732.179 617.461 731.913 616.929 731.381C616.397 730.76 616.131 730.051 616.131 729.253C616.131 726.682 616.973 724.731 618.658 723.401C620.342 721.982 622.426 721.273 624.909 721.273C628.367 721.273 631.337 722.204 633.82 724.066C636.391 725.839 637.677 728.411 637.677 731.78C637.677 732.667 637.499 736.036 637.145 741.888C636.79 748.627 636.613 753.104 636.613 755.321C636.613 758.424 637.189 760.951 638.342 762.902C639.583 764.764 641.489 765.695 644.061 765.695C649.026 765.695 652.839 762.946 655.499 757.449C658.247 751.863 660.065 745.036 660.952 736.967C661.306 733.42 661.838 729.696 662.548 725.795C662.902 723.667 663.39 722.115 664.011 721.14C664.631 720.165 665.828 719.677 667.602 719.677C668.754 719.677 670.084 719.943 671.592 720.475C673.188 721.007 674.207 721.716 674.651 722.603C675.183 723.933 675.449 725.396 675.449 726.992C675.449 729.209 675.138 732.09 674.518 735.637C673.808 739.184 673.321 743.041 673.055 747.208C672.877 750.932 673.454 754.833 674.784 758.912C676.114 762.991 678.02 765.651 680.503 766.892C683.34 768.311 684.759 769.596 684.759 770.749C684.759 772.611 684.094 774.074 682.764 775.138C681.434 776.202 680.148 776.734 678.907 776.734C675.626 776.734 672.656 775.537 669.996 773.143C667.424 770.749 665.562 767.779 664.41 764.232C662.548 767.069 660.73 769.419 658.957 771.281C657.272 773.054 655.1 774.562 652.44 775.803C649.78 776.956 646.499 777.532 642.598 777.532C637.987 777.532 633.775 775.892 629.963 772.611C626.239 769.33 624.377 763.7 624.377 755.72C624.377 753.503 624.421 751.154 624.51 748.671C624.687 746.188 624.776 744.415 624.776 743.351C625.042 740.159 625.175 737.233 625.175 734.573C625.175 733.775 624.864 733.11 624.244 732.578C623.712 732.046 623.091 731.78 622.382 731.78C621.85 731.78 621.229 731.869 620.52 732.046C619.899 732.135 619.323 732.179 618.791 732.179ZM774.622 753.592L775.154 743.351C775.154 739.627 774.711 736.878 773.824 735.105C773.026 733.332 771.164 732.445 768.238 732.445C762.652 732.445 758.44 735.593 755.603 741.888C752.766 748.095 751.347 757.183 751.347 769.153C751.347 769.685 751.347 770.793 751.347 772.478C751.436 774.074 751.17 775.315 750.549 776.202C750.017 777.089 749.042 777.532 747.623 777.532C744.076 777.532 741.682 776.557 740.441 774.606C739.2 772.655 738.579 769.774 738.579 765.961C738.579 764.01 738.845 760.02 739.377 753.991C739.82 749.735 740.042 746.765 740.042 745.08C740.042 740.647 739.377 737.41 738.047 735.371C736.717 733.332 734.412 732.312 731.131 732.312C727.318 732.312 724.171 734.218 721.688 738.031C719.205 741.844 717.388 746.587 716.235 752.262C715.082 757.848 714.506 763.39 714.506 768.887C714.506 771.458 714.063 773.542 713.176 775.138C712.378 776.734 710.826 777.532 708.521 777.532C706.836 777.532 705.152 777.089 703.467 776.202C701.782 775.227 700.94 773.941 700.94 772.345C700.94 770.66 701.117 768.976 701.472 767.291C701.915 764.542 702.27 760.508 702.536 755.188C702.802 749.868 702.935 744.858 702.935 740.159C702.935 738.031 702.403 735.992 701.339 734.041C700.364 732.002 699.167 730.982 697.748 730.982C697.393 730.982 696.728 731.159 695.753 731.514C694.866 731.869 694.201 732.046 693.758 732.046C692.605 732.046 691.541 731.514 690.566 730.45C689.679 729.386 689.236 728.499 689.236 727.79C689.236 725.573 690.3 723.711 692.428 722.204C694.645 720.608 696.95 719.81 699.344 719.81C702.625 719.81 705.462 720.918 707.856 723.135C710.339 725.352 712.201 728.322 713.442 732.046C715.57 728.233 718.053 725.263 720.89 723.135C723.816 720.918 727.363 719.81 731.53 719.81C739.155 719.81 744.697 723.224 748.155 730.051C750.194 726.77 753.342 724.243 757.598 722.47C761.943 720.697 766.199 719.81 770.366 719.81C773.381 719.81 776.262 720.741 779.011 722.603C781.76 724.376 783.932 726.77 785.528 729.785C787.213 732.711 788.055 735.77 788.055 738.962C788.055 741.001 787.833 745.479 787.39 752.395C787.301 753.548 787.213 754.833 787.124 756.252C787.035 757.582 786.991 759.001 786.991 760.508C786.991 762.37 787.434 763.877 788.321 765.03C789.296 766.183 790.538 766.892 792.045 767.158C795.06 767.867 796.567 769.109 796.567 770.882C796.567 772.921 795.636 774.562 793.774 775.803C791.912 776.956 789.828 777.532 787.523 777.532C783.178 777.532 779.853 776.291 777.548 773.808C775.331 771.237 774.223 767.557 774.223 762.769L774.622 753.592ZM809.175 730.716C808.377 730.716 807.623 730.805 806.914 730.982C806.205 731.071 805.495 731.115 804.786 731.115C803.811 731.115 802.88 730.672 801.993 729.785C801.195 728.898 800.796 728.1 800.796 727.391C800.796 725.086 801.949 723.312 804.254 722.071C806.559 720.741 808.909 720.076 811.303 720.076C813.342 720.076 815.426 720.785 817.554 722.204C819.771 723.534 821.411 725.263 822.475 727.391C824.78 724.642 827.618 722.647 830.987 721.406C834.356 720.165 837.859 719.544 841.494 719.544C845.573 719.544 849.341 720.83 852.799 723.401C856.346 725.972 859.139 729.253 861.178 733.243C863.217 737.144 864.237 741.046 864.237 744.947C864.237 748.76 863.838 752.173 863.04 755.188C862.242 758.114 860.823 761.084 858.784 764.099C856.479 767.291 853.375 769.907 849.474 771.946C845.661 773.985 841.095 775.005 835.775 775.005C834.356 775.005 832.627 774.65 830.588 773.941C828.549 773.143 826.864 772.301 825.534 771.414C824.913 777.443 824.603 782.675 824.603 787.108C824.603 789.768 824.736 792.295 825.002 794.689C825.179 797.526 825.268 799.566 825.268 800.807C825.268 802.758 824.603 804.176 823.273 805.063C821.943 806.038 820.48 806.526 818.884 806.526C815.692 806.526 813.564 805.639 812.5 803.866C811.525 802.181 811.037 799.743 811.037 796.551C811.392 788.926 811.835 781.877 812.367 775.404C812.899 767.424 813.165 755.099 813.165 738.43C813.165 736.834 812.855 735.149 812.234 733.376C811.613 731.603 810.594 730.716 809.175 730.716ZM826.066 758.247C826.509 759.932 827.751 761.35 829.79 762.503C831.918 763.567 833.824 764.099 835.509 764.099C840.563 764.099 844.331 762.725 846.814 759.976C848.676 758.025 849.873 756.119 850.405 754.257C851.026 752.395 851.336 749.425 851.336 745.346C851.336 742.154 850.715 739.494 849.474 737.366C848.233 735.149 846.725 733.553 844.952 732.578C843.179 731.514 841.494 730.982 839.898 730.982C836.263 730.982 833.292 732.09 830.987 734.307C828.77 736.435 827.352 739.361 826.731 743.085C826.288 746.011 826.066 751.065 826.066 758.247ZM298.273 849.461C298.273 845.648 301.066 843.742 306.652 843.742C309.046 843.742 313.612 843.831 320.351 844.008C327.799 844.363 333.429 844.54 337.242 844.54C340.345 844.54 344.114 844.363 348.547 844.008C351.562 843.831 353.468 843.742 354.266 843.742C359.143 843.919 363.266 844.806 366.635 846.402C367.61 846.845 368.408 847.377 369.029 847.998C369.65 848.619 369.96 849.638 369.96 851.057C369.96 853.008 369.339 854.692 368.098 856.111C366.857 857.441 365.349 858.106 363.576 858.106C361.625 858.106 358.788 857.84 355.064 857.308C351.783 856.687 348.902 856.377 346.419 856.377C344.025 856.377 342.207 856.421 340.966 856.51C340.7 859.436 340.567 866.441 340.567 877.524C340.567 890.735 340.966 904.124 341.764 917.69L342.03 921.547C342.03 925.182 339.946 927 335.779 927C332.498 927 330.282 926.246 329.129 924.739C327.976 923.143 327.4 920.749 327.4 917.557C327.4 911.262 327.223 903.415 326.868 894.016C326.513 886.213 326.336 880.672 326.336 877.391C326.336 875.174 326.602 868.391 327.134 857.042L311.573 857.175C306.608 857.175 303.15 856.732 301.199 855.845C299.248 854.87 298.273 852.742 298.273 849.461ZM388.484 921.68C388.484 923.187 387.908 924.517 386.755 925.67C385.603 926.823 384.184 927.399 382.499 927.399C379.839 927.399 377.889 926.911 376.647 925.936C375.406 924.872 374.785 922.966 374.785 920.217C374.785 916.936 374.697 912.636 374.519 907.316C374.342 902.883 374.253 899.159 374.253 896.144C374.253 894.725 374.342 892.863 374.519 890.558C374.697 888.43 374.785 886.834 374.785 885.77C374.519 884.085 373.854 882.711 372.79 881.647C371.726 880.494 370.352 879.918 368.667 879.918C367.869 879.918 367.204 879.563 366.672 878.854C366.14 878.056 365.874 877.258 365.874 876.46C365.874 874.421 366.672 872.869 368.268 871.805C369.953 870.741 371.948 870.209 374.253 870.209C379.041 870.209 382.366 873.046 384.228 878.721C386.534 876.061 389.149 873.933 392.075 872.337C395.09 870.652 397.972 869.81 400.72 869.81C404.001 869.81 406.971 870.697 409.631 872.47C412.38 874.243 413.754 876.637 413.754 879.652C413.754 881.337 413.001 883.066 411.493 884.839C410.075 886.612 408.612 887.499 407.104 887.499C406.306 887.499 405.597 887.322 404.976 886.967C404.444 886.524 403.779 885.903 402.981 885.105C402.095 884.218 401.341 883.598 400.72 883.243C400.1 882.8 399.39 882.578 398.592 882.578C397.174 882.578 395.844 882.8 394.602 883.243C393.361 883.686 392.519 884.218 392.075 884.839C390.657 887.056 389.593 889.051 388.883 890.824C388.263 892.597 387.952 894.504 387.952 896.543C387.952 898.05 387.908 899.247 387.819 900.134L387.686 907.715C387.686 908.868 387.731 910.153 387.819 911.572C387.908 912.991 387.997 914.055 388.085 914.764C388.351 917.158 388.484 919.463 388.484 921.68ZM482.178 920.616C482.178 922.567 481.114 924.207 478.986 925.537C476.946 926.867 475.04 927.532 473.267 927.532C469.897 927.532 467.193 927.133 465.154 926.335C463.203 925.448 461.385 923.852 459.701 921.547C457.395 923.586 454.248 925.138 450.258 926.202C446.268 927.177 442.588 927.665 439.219 927.665C433.721 927.665 429.199 926.202 425.653 923.276C422.106 920.261 420.333 915.872 420.333 910.109C420.333 907.626 420.998 905.365 422.328 903.326C423.658 901.198 425.475 899.336 427.781 897.74C430.352 896.055 433.278 894.77 436.559 893.883C439.839 892.908 443.253 892.42 446.8 892.42C448.662 892.42 450.878 892.775 453.45 893.484C456.021 894.193 458.016 894.947 459.435 895.745V893.617C459.435 888.829 458.282 885.548 455.977 883.775C453.671 881.913 449.947 880.982 444.805 880.982C443.297 880.982 441.79 881.292 440.283 881.913C438.864 882.534 437.224 883.376 435.362 884.44C432.879 885.77 430.529 886.435 428.313 886.435C427.515 886.435 426.761 885.903 426.052 884.839C425.342 883.686 424.988 882.667 424.988 881.78C424.988 879.209 426.185 876.992 428.579 875.13C431.061 873.268 433.987 871.894 437.357 871.007C440.726 870.032 443.741 869.544 446.401 869.544C449.061 869.544 452.12 870.076 455.578 871.14C459.036 872.115 461.873 873.49 464.09 875.263C466.75 877.568 468.789 880.273 470.208 883.376C471.715 886.391 472.469 889.716 472.469 893.351C472.469 894.504 472.38 896.233 472.203 898.538C472.025 901.021 471.937 903.149 471.937 904.922C471.937 905.72 471.848 906.917 471.671 908.513C471.493 910.464 471.405 912.015 471.405 913.168C471.405 914.232 471.804 915.163 472.602 915.961C473.4 916.67 474.331 917.025 475.395 917.025L479.119 916.892C480.094 916.892 480.848 917.247 481.38 917.956C481.912 918.665 482.178 919.552 482.178 920.616ZM439.352 917.158C443.164 917.158 446.356 916.759 448.928 915.961C451.499 915.163 454.602 913.7 458.238 911.572C458.592 910.065 458.814 908.07 458.903 905.587C454.026 903.282 449.992 902.129 446.8 902.129C443.164 902.129 439.928 902.794 437.091 904.124C434.253 905.454 432.835 907.804 432.835 911.173C432.835 912.858 433.544 914.276 434.963 915.429C436.381 916.582 437.844 917.158 439.352 917.158ZM532.383 886.701C531.053 886.701 529.901 886.391 528.925 885.77C528.039 885.061 527.108 884.13 526.132 882.977C525.157 881.824 524.093 881.071 522.94 880.716C521.876 880.361 520.635 880.184 519.216 880.184C516.645 880.184 514.118 880.982 511.635 882.578C509.241 884.085 507.246 886.213 505.65 888.962C504.143 891.711 503.389 894.77 503.389 898.139C503.389 901.863 504.099 904.966 505.517 907.449C507.025 909.932 509.374 912.104 512.566 913.966C513.719 914.587 515.049 915.074 516.556 915.429C518.152 915.784 519.527 915.961 520.679 915.961C523.428 915.961 526.975 914.764 531.319 912.37C531.674 912.193 532.339 911.882 533.314 911.439C534.378 910.907 535.176 910.641 535.708 910.641C536.684 910.641 537.792 911.129 539.033 912.104C540.275 912.991 540.895 914.099 540.895 915.429C540.895 918.089 539.743 920.35 537.437 922.212C535.221 924.074 532.428 925.448 529.058 926.335C525.689 927.222 522.364 927.665 519.083 927.665C513.852 927.665 508.975 926.468 504.453 924.074C499.931 921.68 496.34 918.355 493.68 914.099C491.02 909.843 489.69 905.055 489.69 899.735C489.69 893.972 490.976 888.785 493.547 884.174C496.119 879.475 499.577 875.795 503.921 873.135C508.355 870.386 513.143 869.012 518.285 869.012C523.251 869.012 527.817 869.987 531.984 871.938C536.24 873.889 538.368 876.859 538.368 880.849C538.368 884.75 536.373 886.701 532.383 886.701ZM561.787 927.532C560.013 927.532 558.506 927.222 557.265 926.601C556.023 925.98 555.27 925.315 555.004 924.606C554.028 921.059 553.541 916.404 553.541 910.641C553.541 900.001 553.718 891.356 554.073 884.706C554.427 876.815 554.605 869.234 554.605 861.963C554.605 859.835 554.339 856.732 553.807 852.653C553.718 851.944 553.585 850.658 553.408 848.796C553.23 846.934 553.142 845.205 553.142 843.609C553.142 841.658 553.807 840.107 555.137 838.954C556.555 837.801 558.373 837.225 560.59 837.225C562.363 837.225 563.782 837.801 564.846 838.954C565.998 840.018 566.575 841.481 566.575 843.343C566.575 846.18 566.663 850.17 566.841 855.313C567.018 860.101 567.107 863.692 567.107 866.086C567.107 868.746 567.018 872.293 566.841 876.726C566.663 879.386 566.575 881.337 566.575 882.578C566.575 886.479 566.619 889.716 566.708 892.287C569.988 889.006 574.289 885.149 579.609 880.716C584.929 876.283 589.052 873.179 591.978 871.406C595.081 869.544 597.12 868.613 598.096 868.613C599.958 868.613 601.554 869.012 602.884 869.81C604.214 870.608 604.879 871.761 604.879 873.268C604.879 874.775 604.657 875.972 604.214 876.859C603.77 877.746 602.972 878.632 601.82 879.519L586.791 890.558C588.298 891.179 589.717 892.553 591.047 894.681C592.465 896.809 594.15 899.691 596.101 903.326C598.317 907.493 600.135 910.597 601.554 912.636C603.061 914.675 604.568 915.695 606.076 915.695L609.401 915.562C610.021 915.562 610.553 915.917 610.997 916.626C611.529 917.335 611.795 918.355 611.795 919.685C611.795 921.724 610.775 923.365 608.736 924.606C606.785 925.847 604.568 926.468 602.086 926.468C598.628 926.468 595.569 925.138 592.909 922.478C590.249 919.729 587.722 916.05 585.328 911.439L582.402 905.587C581.16 903.104 580.185 901.331 579.476 900.267C578.855 899.203 578.101 898.494 577.215 898.139L566.575 906.651L567.107 921.148C567.107 923.453 566.486 925.094 565.245 926.069C564.092 927.044 562.939 927.532 561.787 927.532ZM618.924 896.543C618.924 891.134 620.121 886.657 622.515 883.11C624.909 879.475 628.234 876.061 632.49 872.869C633.731 871.982 635.815 871.229 638.741 870.608C641.667 869.899 644.238 869.544 646.455 869.544C649.115 869.544 651.908 870.12 654.834 871.273C657.848 872.337 660.287 873.578 662.149 874.997C665.429 877.391 667.69 880.184 668.932 883.376C670.173 886.479 670.794 890.203 670.794 894.548C670.794 896.41 669.73 898.228 667.602 900.001C665.562 901.686 663.346 902.528 660.952 902.528L655.898 902.395C653.326 902.395 649.647 902.484 644.859 902.661L642.066 902.794C640.115 902.971 638.652 903.06 637.677 903.06C636.258 903.06 634.307 902.883 631.825 902.528C632.179 906.695 633.731 909.976 636.48 912.37C639.228 914.675 642.199 915.828 645.391 915.828C650.977 915.828 654.878 914.72 657.095 912.503C658.957 911.173 660.198 910.331 660.819 909.976C661.439 909.621 662.415 909.444 663.745 909.444C665.163 909.444 666.405 910.109 667.469 911.439C668.533 912.769 669.065 914.099 669.065 915.429C669.065 916.936 668.134 918.488 666.272 920.084C664.498 921.591 662.06 923.187 658.957 924.872C657.272 925.581 654.967 926.202 652.041 926.734C649.115 927.266 646.676 927.532 644.726 927.532C641.622 927.532 638.164 926.645 634.352 924.872C630.539 923.01 627.702 920.971 625.84 918.754C623.978 916.537 622.337 913.39 620.919 909.311C619.589 905.232 618.924 900.976 618.924 896.543ZM645.391 892.952C651.686 892.952 656.297 892.73 659.223 892.287C659.045 889.716 658.247 887.632 656.829 886.036C655.41 884.351 653.459 882.933 650.977 881.78C650.179 881.425 649.469 881.159 648.849 880.982C648.228 880.805 647.519 880.716 646.721 880.716C642.642 880.716 639.184 881.824 636.347 884.041C633.598 886.258 631.958 889.095 631.426 892.553C635.859 892.819 640.514 892.952 645.391 892.952ZM703.061 921.68C703.061 923.187 702.484 924.517 701.332 925.67C700.179 926.823 698.76 927.399 697.076 927.399C694.416 927.399 692.465 926.911 691.224 925.936C689.982 924.872 689.362 922.966 689.362 920.217C689.362 916.936 689.273 912.636 689.096 907.316C688.918 902.883 688.83 899.159 688.83 896.144C688.83 894.725 688.918 892.863 689.096 890.558C689.273 888.43 689.362 886.834 689.362 885.77C689.096 884.085 688.431 882.711 687.367 881.647C686.303 880.494 684.928 879.918 683.244 879.918C682.446 879.918 681.781 879.563 681.249 878.854C680.717 878.056 680.451 877.258 680.451 876.46C680.451 874.421 681.249 872.869 682.845 871.805C684.529 870.741 686.524 870.209 688.83 870.209C693.618 870.209 696.943 873.046 698.805 878.721C701.11 876.061 703.726 873.933 706.652 872.337C709.666 870.652 712.548 869.81 715.297 869.81C718.577 869.81 721.548 870.697 724.208 872.47C726.956 874.243 728.331 876.637 728.331 879.652C728.331 881.337 727.577 883.066 726.07 884.839C724.651 886.612 723.188 887.499 721.681 887.499C720.883 887.499 720.173 887.322 719.553 886.967C719.021 886.524 718.356 885.903 717.558 885.105C716.671 884.218 715.917 883.598 715.297 883.243C714.676 882.8 713.967 882.578 713.169 882.578C711.75 882.578 710.42 882.8 709.179 883.243C707.937 883.686 707.095 884.218 706.652 884.839C705.233 887.056 704.169 889.051 703.46 890.824C702.839 892.597 702.529 894.504 702.529 896.543C702.529 898.05 702.484 899.247 702.396 900.134L702.263 907.715C702.263 908.868 702.307 910.153 702.396 911.572C702.484 912.991 702.573 914.055 702.662 914.764C702.928 917.158 703.061 919.463 703.061 921.68Z" fill="black"/>
</g>
<defs>
<clipPath id="clip0_208_2">
<rect width="1024" height="1024" fill="white"/>
</clipPath>
</defs>
</svg>
